<?xml version="1.0" encoding="UTF-8" standalone="no"?>
<svg
   width="100%"
   height="100%"
   viewBox="0 0 137 44"
   version="1.1"
   xml:space="preserve"
   style="fill-rule:evenodd;clip-rule:evenodd;stroke-linejoin:round;stroke-miterlimit:2;"
   id="svg23"
   sodipodi:docname="barcode-3.svg"
   inkscape:version="1.4.2 (f4327f4, 2025-05-13)"
   xmlns:inkscape="http://www.inkscape.org/namespaces/inkscape"
   xmlns:sodipodi="http://sodipodi.sourceforge.net/DTD/sodipodi-0.dtd"
   xmlns="http://www.w3.org/2000/svg"
   xmlns:svg="http://www.w3.org/2000/svg"><defs
   id="defs23" /><sodipodi:namedview
   id="namedview23"
   pagecolor="#ffffff"
   bordercolor="#666666"
   borderopacity="1.0"
   inkscape:showpageshadow="2"
   inkscape:pageopacity="0.0"
   inkscape:pagecheckerboard="0"
   inkscape:deskcolor="#d1d1d1"
   inkscape:zoom="6.4817518"
   inkscape:cx="71.508446"
   inkscape:cy="32.16723"
   inkscape:window-width="1920"
   inkscape:window-height="1027"
   inkscape:window-x="1912"
   inkscape:window-y="-8"
   inkscape:window-maximized="1"
   inkscape:current-layer="svg23" />
    <rect
   style="clip-rule:evenodd;display:none;fill:#000000;fill-rule:evenodd;stroke-width:6.66667;stroke-linecap:round;stroke-linejoin:round;stroke-miterlimit:2"
   id="rect23"
   width="149.18806"
   height="72.202705"
   x="-5.8626127"
   y="-10.64527" /><rect
   x="1"
   y="0"
   width="3.942"
   height="28.226"
   style="fill:white;"
   id="rect1" />
    <rect
   x="7.898"
   y="0"
   width="4.927"
   height="28.226"
   style="fill:white;"
   id="rect2" />
    <rect
   x="15.781"
   y="0"
   width="0.985"
   height="28.226"
   style="fill:white;"
   id="rect3" />
    <rect
   x="22.679"
   y="0"
   width="7.883"
   height="28.226"
   style="fill:white;"
   id="rect4" />
    <rect
   x="18.737"
   y="0"
   width="2.956"
   height="28.226"
   style="fill:white;"
   id="rect5" />
    <rect
   x="33.518"
   y="0"
   width="4.927"
   height="28.226"
   style="fill:white;"
   id="rect6" />
    <rect
   x="41.401"
   y="0"
   width="1.971"
   height="28.226"
   style="fill:white;"
   id="rect7" />
    <rect
   x="46.329"
   y="0"
   width="3.942"
   height="28.226"
   style="fill:white;"
   id="rect8" />
    <rect
   x="53.226"
   y="0"
   width="0.985"
   height="28.226"
   style="fill:white;"
   id="rect9" />
    <rect
   x="56.183"
   y="0"
   width="3.942"
   height="28.226"
   style="fill:white;"
   id="rect10" />
    <rect
   x="63.08"
   y="0"
   width="1.971"
   height="28.226"
   style="fill:white;"
   id="rect11" />
    <rect
   x="68.007"
   y="0"
   width="3.942"
   height="28.226"
   style="fill:white;"
   id="rect12" />
    <rect
   x="74.905"
   y="0"
   width="1.971"
   height="28.226"
   style="fill:white;"
   id="rect13" />
    <rect
   x="79.832"
   y="0"
   width="9.854"
   height="28.226"
   style="fill:white;"
   id="rect14" />
    <rect
   x="92.643"
   y="0"
   width="2.956"
   height="28.226"
   style="fill:white;"
   id="rect15" />
    <rect
   x="97.569"
   y="0"
   width="1.971"
   height="28.226"
   style="fill:white;"
   id="rect16" />
    <rect
   x="100.525"
   y="0"
   width="6.898"
   height="28.226"
   style="fill:white;"
   id="rect17" />
    <rect
   x="110.379"
   y="0"
   width="2.956"
   height="28.226"
   style="fill:white;"
   id="rect18" />
    <rect
   x="116.292"
   y="0"
   width="1.971"
   height="28.226"
   style="fill:white;"
   id="rect19" />
    <rect
   x="121.219"
   y="0"
   width="4.927"
   height="28.226"
   style="fill:white;"
   id="rect20" />
    <rect
   x="133.044"
   y="0"
   width="2.956"
   height="28.226"
   style="fill:white;"
   id="rect21" />
    <rect
   x="129.102"
   y="0"
   width="0.985"
   height="28.226"
   style="fill:white;"
   id="rect22" />
    <g
   transform="matrix(1.0975047,0,0,1.148259,-14.737486,-6.377301)"
   id="g23">
        <g
   transform="matrix(12.58117,0,0,12.58117,132.30169,42.837)"
   id="g22">
        </g>
        <text
   x="13.41"
   y="42.837002"
   style="font-size:12.581px;font-family:LMMono10-Regular, 'Latin Modern Mono', monospace;fill:#ffffff"
   id="text22">J3S.SUS21.PHI.CRUZ</text>
    </g>
</svg>
