<?xml version="1.0" encoding="UTF-8" standalone="no"?>
<!DOCTYPE svg PUBLIC "-//W3C//DTD SVG 1.1//EN" "http://www.w3.org/Graphics/SVG/1.1/DTD/svg11.dtd">
<svg width="100%" height="100%" viewBox="0 0 137 44" version="1.1" xmlns="http://www.w3.org/2000/svg" xmlns:xlink="http://www.w3.org/1999/xlink" xml:space="preserve" xmlns:serif="http://www.serif.com/" style="fill-rule:evenodd;clip-rule:evenodd;stroke-linejoin:round;stroke-miterlimit:2;">
    <rect x="1" y="0" width="3.942" height="28.226" style="fill:white;"/>
    <rect x="7.898" y="0" width="4.927" height="28.226" style="fill:white;"/>
    <rect x="15.781" y="0" width="0.985" height="28.226" style="fill:white;"/>
    <rect x="22.679" y="0" width="7.883" height="28.226" style="fill:white;"/>
    <rect x="18.737" y="0" width="2.956" height="28.226" style="fill:white;"/>
    <rect x="33.518" y="0" width="4.927" height="28.226" style="fill:white;"/>
    <rect x="41.401" y="0" width="1.971" height="28.226" style="fill:white;"/>
    <rect x="46.329" y="0" width="3.942" height="28.226" style="fill:white;"/>
    <rect x="53.226" y="0" width="0.985" height="28.226" style="fill:white;"/>
    <rect x="56.183" y="0" width="3.942" height="28.226" style="fill:white;"/>
    <rect x="63.08" y="0" width="1.971" height="28.226" style="fill:white;"/>
    <rect x="68.007" y="0" width="3.942" height="28.226" style="fill:white;"/>
    <rect x="74.905" y="0" width="1.971" height="28.226" style="fill:white;"/>
    <rect x="79.832" y="0" width="9.854" height="28.226" style="fill:white;"/>
    <rect x="92.643" y="0" width="2.956" height="28.226" style="fill:white;"/>
    <rect x="97.569" y="0" width="1.971" height="28.226" style="fill:white;"/>
    <rect x="100.525" y="0" width="6.898" height="28.226" style="fill:white;"/>
    <rect x="110.379" y="0" width="2.956" height="28.226" style="fill:white;"/>
    <rect x="116.292" y="0" width="1.971" height="28.226" style="fill:white;"/>
    <rect x="121.219" y="0" width="4.927" height="28.226" style="fill:white;"/>
    <rect x="133.044" y="0" width="2.956" height="28.226" style="fill:white;"/>
    <rect x="129.102" y="0" width="0.985" height="28.226" style="fill:white;"/>
    <g transform="matrix(1.148259,0,0,1.148259,-15.463437,-6.377301)">
        <g transform="matrix(12.58117,0,0,12.58117,132.301688,42.837)">
        </g>
        <text x="13.41px" y="42.837px" style="font-family:'LMMono10-Regular', 'Latin Modern Mono', monospace;font-size:12.581px;fill:white;">J3S.SUS21.PHI.CRUZ</text>
    </g>
</svg>
