<?xml version="1.0" encoding="UTF-8" standalone="no"?>
<svg
   width="36"
   height="20"
   viewBox="0 0 36 20"
   fill="none"
   version="1.1"
   id="svg4"
   sodipodi:docname="symbol.svg"
   inkscape:version="1.4.2 (f4327f4, 2025-05-13)"
   xmlns:inkscape="http://www.inkscape.org/namespaces/inkscape"
   xmlns:sodipodi="http://sodipodi.sourceforge.net/DTD/sodipodi-0.dtd"
   xmlns="http://www.w3.org/2000/svg"
   xmlns:svg="http://www.w3.org/2000/svg">
  <defs
     id="defs4" />
  <sodipodi:namedview
     id="namedview4"
     pagecolor="#ffffff"
     bordercolor="#666666"
     borderopacity="1.0"
     inkscape:showpageshadow="2"
     inkscape:pageopacity="0.0"
     inkscape:pagecheckerboard="0"
     inkscape:deskcolor="#d1d1d1"
     inkscape:zoom="20.625"
     inkscape:cx="29.842424"
     inkscape:cy="10.109091"
     inkscape:window-width="1920"
     inkscape:window-height="1027"
     inkscape:window-x="1912"
     inkscape:window-y="-8"
     inkscape:window-maximized="1"
     inkscape:current-layer="svg4" />
  <path
     d="m 18,1 c 4.3218,0 8,3.92772 8,9 0,5.0723 -3.6782,9 -8,9 -4.3218,0 -8,-3.9277 -8,-9 0,-5.07228 3.6782,-9 8,-9 z"
     stroke="#000000"
     stroke-width="2"
     id="path1"
     style="display:none" />
  <path
     d="m 18,1 c 3.6815,0 6.973,1.06701 9.3184,2.74219 C 29.6656,5.4188 31,7.64535 31,10 31,12.3547 29.6656,14.5812 27.3184,16.2578 24.973,17.933 21.6815,19 18,19 14.3185,19 11.027,17.933 8.68164,16.2578 6.33438,14.5812 5,12.3547 5,10 5,7.64535 6.33438,5.4188 8.68164,3.74219 11.027,2.06701 14.3185,1 18,1 Z"
     stroke="#000000"
     stroke-width="2"
     id="path2"
     style="display:none" />
  <path
     d="M 18,1 C 22.8332,1 27.1596,2.09025 30.2422,3.80273 33.3587,5.53411 35,7.76665 35,10 35,12.2334 33.3587,14.4659 30.2422,16.1973 27.1596,17.9098 22.8332,19 18,19 13.1668,19 8.84041,17.9098 5.75781,16.1973 2.64133,14.4659 1,12.2334 1,10 1,7.76665 2.64133,5.53411 5.75781,3.80273 8.84041,2.09025 13.1668,1 18,1 Z"
     stroke="#000000"
     stroke-width="2"
     id="path3"
     style="display:none" />
  <path
     d="M 1,10 H 35"
     stroke="#000000"
     stroke-width="2"
     id="path4"
     style="display:none" />
  <line
     x1="18"
     y1="1"
     x2="18"
     y2="19"
     stroke="#000000"
     stroke-width="2"
     id="line4"
     style="display:none" />
  <text
     xml:space="preserve"
     style="font-size:26.2901px;line-height:1.25;font-family:Minecraft;-inkscape-font-specification:Minecraft;stroke-width:1.23236"
     x="8.4154291"
     y="14.711166"
     id="text4"><tspan
       sodipodi:role="line"
       id="tspan4"
       x="8.4154291"
       y="14.711166"
       style="font-style:italic;font-variant:normal;font-weight:normal;font-stretch:normal;font-size:26.2901px;font-family:'Latin Modern Mono';-inkscape-font-specification:'Latin Modern Mono';fill:#000000;fill-opacity:1;stroke-width:1.23236">φ</tspan></text>
</svg>
