<?xml version="1.0" encoding="UTF-8" standalone="no"?>
<!-- Created with Inkscape (http://www.inkscape.org/) -->

<svg
   width="1080"
   height="1080"
   viewBox="0 0 285.74999 285.75"
   version="1.1"
   id="svg5"
   xml:space="preserve"
   inkscape:version="1.4.2 (f4327f4, 2025-05-13)"
   sodipodi:docname="favicon-v2.svg"
   xmlns:inkscape="http://www.inkscape.org/namespaces/inkscape"
   xmlns:sodipodi="http://sodipodi.sourceforge.net/DTD/sodipodi-0.dtd"
   xmlns="http://www.w3.org/2000/svg"
   xmlns:svg="http://www.w3.org/2000/svg"><sodipodi:namedview
     id="namedview7"
     pagecolor="#000000"
     bordercolor="#000000"
     borderopacity="0.25"
     inkscape:showpageshadow="2"
     inkscape:pageopacity="1"
     inkscape:pagecheckerboard="0"
     inkscape:deskcolor="#d1d1d1"
     inkscape:document-units="mm"
     showgrid="true"
     showguides="true"
     inkscape:lockguides="false"
     inkscape:zoom="0.49448344"
     inkscape:cx="698.70894"
     inkscape:cy="971.72112"
     inkscape:window-width="1920"
     inkscape:window-height="1027"
     inkscape:window-x="1912"
     inkscape:window-y="-8"
     inkscape:window-maximized="1"
     inkscape:current-layer="layer1"><inkscape:grid
       type="xygrid"
       id="grid7534"
       originx="0"
       originy="0"
       spacingx="28.575"
       spacingy="28.575"
       enabled="true"
       visible="true"
       units="mm" /><inkscape:page
       x="0"
       y="0"
       width="285.75"
       height="285.75"
       id="page546"
       margin="0"
       bleed="0" /></sodipodi:namedview><defs
     id="defs2"><rect
       x="-41.40485"
       y="860.78503"
       width="1121.9858"
       height="231.73669"
       id="rect16798" /><rect
       x="2.2829418"
       y="865.23492"
       width="1077.5485"
       height="214.59653"
       id="rect16792" /><filter
       style="color-interpolation-filters:sRGB"
       inkscape:label="Noise Fill"
       id="filter3158"
       x="0"
       y="0"
       width="1"
       height="1"><feTurbulence
         type="fractalNoise"
         baseFrequency="91.629 90.724"
         numOctaves="5"
         seed="271"
         result="turbulence"
         id="feTurbulence3142" /><feComposite
         in="SourceGraphic"
         in2="turbulence"
         operator="in"
         result="composite1"
         id="feComposite3144" /><feColorMatrix
         values="1 0 0 0 0 0 1 0 0 0 0 0 1 0 0 0 0 0 1.67 -0.87 "
         result="color"
         id="feColorMatrix3146" /><feFlood
         flood-opacity="0"
         flood-color="rgb(21,40,57)"
         result="flood"
         id="feFlood3148" /><feMerge
         result="merge"
         id="feMerge3154"><feMergeNode
           in="flood"
           id="feMergeNode3150" /><feMergeNode
           in="color"
           id="feMergeNode3152" /></feMerge><feComposite
         in2="SourceGraphic"
         operator="in"
         result="composite2"
         id="feComposite3156" /></filter><filter
       style="color-interpolation-filters:sRGB"
       inkscape:label="Noise Fill"
       id="filter3176"
       x="-0.022457859"
       y="-0.020324508"
       width="1.0449157"
       height="1.0406491"><feTurbulence
         type="fractalNoise"
         baseFrequency="91.629 90.724"
         numOctaves="5"
         seed="271"
         result="turbulence"
         id="feTurbulence3160" /><feComposite
         in="SourceGraphic"
         in2="turbulence"
         operator="in"
         result="composite1"
         id="feComposite3162" /><feColorMatrix
         values="1 0 0 0 0 0 1 0 0 0 0 0 1 0 0 0 0 0 1.67 -0.87 "
         result="color"
         id="feColorMatrix3164" /><feFlood
         flood-opacity="0"
         flood-color="rgb(21,40,57)"
         result="flood"
         id="feFlood3166" /><feMerge
         result="merge"
         id="feMerge3172"><feMergeNode
           in="flood"
           id="feMergeNode3168" /><feMergeNode
           in="color"
           id="feMergeNode3170" /></feMerge><feComposite
         in2="SourceGraphic"
         operator="in"
         result="composite2"
         id="feComposite3174" /></filter><rect
       x="-41.40485"
       y="860.78503"
       width="1121.9858"
       height="231.73669"
       id="rect16798-2" /><filter
       style="color-interpolation-filters:sRGB"
       inkscape:label="Noise Fill"
       id="filter3158-4"
       x="0"
       y="0"
       width="1"
       height="1"><feTurbulence
         type="fractalNoise"
         baseFrequency="91.629 90.724"
         numOctaves="5"
         seed="271"
         result="turbulence"
         id="feTurbulence3142-5" /><feComposite
         in="SourceGraphic"
         in2="turbulence"
         operator="in"
         result="composite1"
         id="feComposite3144-8" /><feColorMatrix
         values="1 0 0 0 0 0 1 0 0 0 0 0 1 0 0 0 0 0 1.67 -0.87 "
         result="color"
         id="feColorMatrix3146-6" /><feFlood
         flood-opacity="0"
         flood-color="rgb(21,40,57)"
         result="flood"
         id="feFlood3148-2" /><feMerge
         result="merge"
         id="feMerge3154-5"><feMergeNode
           in="flood"
           id="feMergeNode3150-1" /><feMergeNode
           in="color"
           id="feMergeNode3152-3" /></feMerge><feComposite
         in2="SourceGraphic"
         operator="in"
         result="composite2"
         id="feComposite3156-9" /></filter><filter
       style="color-interpolation-filters:sRGB"
       inkscape:label="Noise Fill"
       id="filter3176-7"
       x="-0.022457859"
       y="-0.020324508"
       width="1.0449157"
       height="1.0406491"><feTurbulence
         type="fractalNoise"
         baseFrequency="91.629 90.724"
         numOctaves="5"
         seed="271"
         result="turbulence"
         id="feTurbulence3160-3" /><feComposite
         in="SourceGraphic"
         in2="turbulence"
         operator="in"
         result="composite1"
         id="feComposite3162-7" /><feColorMatrix
         values="1 0 0 0 0 0 1 0 0 0 0 0 1 0 0 0 0 0 1.67 -0.87 "
         result="color"
         id="feColorMatrix3164-5" /><feFlood
         flood-opacity="0"
         flood-color="rgb(21,40,57)"
         result="flood"
         id="feFlood3166-0" /><feMerge
         result="merge"
         id="feMerge3172-2"><feMergeNode
           in="flood"
           id="feMergeNode3168-1" /><feMergeNode
           in="color"
           id="feMergeNode3170-8" /></feMerge><feComposite
         in2="SourceGraphic"
         operator="in"
         result="composite2"
         id="feComposite3174-7" /></filter><rect
       x="-41.40485"
       y="860.78503"
       width="1121.9858"
       height="231.73669"
       id="rect95365" /></defs><g
     inkscape:label="Capa 1"
     inkscape:groupmode="layer"
     id="layer1"
     style="display:inline"><path
       id="text356"
       style="font-size:197.478px;line-height:14.8107px;font-family:Formula1;-inkscape-font-specification:Formula1;text-align:center;text-anchor:middle;display:inline;fill:#ffffff;fill-opacity:1;stroke:#ffffff;stroke-width:7.46374;stroke-linejoin:round;stroke-opacity:1"
       d="M 84.937208 47.108832 C 78.881216 47.108832 73.944189 48.886046 70.126281 52.44065 C 66.440025 55.863602 64.597053 60.208307 64.597053 65.474387 C 64.597053 69.950555 66.242729 73.768408 69.534029 76.928056 C 72.95698 79.956052 77.301092 81.469839 82.567172 81.469839 C 88.623164 81.469839 93.560191 79.758352 97.378099 76.3354 C 101.19601 72.780796 103.10526 68.173186 103.10526 62.51215 C 103.10526 58.167634 101.39382 54.54696 97.970864 51.650616 C 94.679564 48.62262 90.334939 47.108832 84.937208 47.108832 z M 202.85288 50.522591 C 199.78899 50.522591 196.76418 50.562777 193.77885 50.642893 C 190.87209 50.642893 188.1224 50.722743 185.52988 50.882976 L 185.52988 171.05771 C 170.68181 170.57701 158.81933 165.72967 149.94191 156.51629 C 141.14306 147.30292 136.74366 135.12559 136.74366 119.9836 C 136.74366 106.60418 139.65034 94.586548 145.46387 83.931079 C 151.2774 73.27561 159.52647 63.98226 170.21079 56.050745 L 170.21079 54.007698 L 143.22459 54.007698 C 132.77595 65.063749 125.23412 76.079867 120.59901 87.055801 C 115.9639 98.031736 113.64633 109.88862 113.64633 122.62712 C 113.64633 133.3627 115.49241 142.65605 119.18478 150.50745 C 122.87716 158.35885 128.06255 165.24888 134.74026 171.17749 C 141.10372 176.70551 148.60616 181.11186 157.2479 184.39663 C 165.9682 187.60128 175.43486 189.44408 185.64782 189.92478 L 185.64782 237.75438 L 207.68422 237.75438 L 207.68422 189.92478 C 228.81719 188.72303 246.1008 181.79334 259.53477 169.13496 C 273.0473 156.47658 279.80365 139.77183 279.80365 119.02171 C 279.80365 97.310189 272.92917 80.485923 259.18096 68.548593 C 245.5113 56.531146 226.73549 50.522591 202.85288 50.522591 z M 207.68422 69.389664 C 222.84654 69.389664 234.82714 73.796527 243.626 82.609321 C 252.42486 91.341999 256.82426 103.07885 256.82426 117.82025 C 256.82426 133.92363 252.6606 146.62181 244.33311 155.9153 C 236.08418 165.2088 223.86784 170.25654 207.68422 171.05771 L 207.68422 69.389664 z M 62.0296 96.280502 L 40.701845 202.32628 C 39.648629 207.72401 37.937188 211.67384 35.567452 214.17523 C 33.066064 216.67662 29.708948 217.92698 25.496084 217.92698 C 20.493308 217.92698 16.214962 216.67662 12.660358 214.17523 L 0.41637143 236.48991 C 7.1306233 240.43947 15.622576 242.41438 25.891432 242.41438 C 51.036963 242.41438 66.308402 228.78821 71.706134 201.53625 L 92.836471 96.280502 L 62.0296 96.280502 z "
       transform="scale(1.0077844,0.99227572)" /></g></svg>
